<?xml version="1.0" encoding="UTF-8"?>
<svg width="48px" height="48px" viewBox="0 0 48 48" version="1.1" xmlns="http://www.w3.org/2000/svg" xmlns:xlink="http://www.w3.org/1999/xlink">
    <!-- Generator: Sketch 53.2 (72643) - https://sketchapp.com -->
    <title>facebook</title>
    <desc>Created with Sketch.</desc>
    <g id="Page-1" stroke="none" stroke-width="1" fill="none" fill-rule="evenodd">
        <g id="facebook" fill="#FFFFFF" fill-rule="nonzero">
            <path d="M48,8.00053333 C48,3.7968 44.2048,0 40,0 L8,0 C3.7952,0 0,3.7968 0,8.00053333 L0,39.9994667 C0,44.2032 3.7952,48 8.00053333,48 L24,48 L24,29.8666667 L18.1333333,29.8666667 L18.1333333,21.8666667 L24,21.8666667 L24,18.7498667 C24,13.3744 28.0362667,8.53333333 33,8.53333333 L39.4666667,8.53333333 L39.4666667,16.5333333 L33,16.5333333 C32.2922667,16.5333333 31.4666667,17.3925333 31.4666667,18.6794667 L31.4666667,21.8666667 L39.4666667,21.8666667 L39.4666667,29.8666667 L31.4666667,29.8666667 L31.4666667,48 L40,48 C44.2048,48 48,44.2032 48,39.9994667 L48,8.00053333 Z" id="Path"></path>
        </g>
    </g>
</svg>