<?xml version="1.0" encoding="UTF-8"?>
<svg width="48px" height="48px" viewBox="0 0 48 48" version="1.1" xmlns="http://www.w3.org/2000/svg" xmlns:xlink="http://www.w3.org/1999/xlink">
    <!-- Generator: Sketch 53.2 (72643) - https://sketchapp.com -->
    <title>instagram</title>
    <desc>Created with Sketch.</desc>
    <g id="Page-1" stroke="none" stroke-width="1" fill="none" fill-rule="evenodd">
        <g id="instagram" fill="#FFFFFF" fill-rule="nonzero">
            <path d="M47.856,14.1066667 C47.8164968,12.1153974 47.4395982,10.1452453 46.7413333,8.28 C46.1379314,6.67845852 45.1923906,5.22784063 43.9706667,4.02933333 C42.7721594,2.80760942 41.3215415,1.86206865 39.72,1.25866667 C37.8555964,0.560697641 35.8863711,0.18380378 33.896,0.144 C31.3333333,0.0266666667 30.5173333,0 24,0 C17.4826667,0 16.6666667,0.0266666667 14.1066667,0.144 C12.1153974,0.183503181 10.1452453,0.560401827 8.28,1.25866667 C6.67750456,1.86172527 5.22594617,2.80728588 4.02666667,4.02933333 C2.80494275,5.22784063 1.85940198,6.67845852 1.256,8.28 C0.558030975,10.1444036 0.181137113,12.1136289 0.141333333,14.104 C0.0266666667,16.6666667 0,17.4826667 0,24 C0,30.5173333 0.0266666667,31.3333333 0.144,33.8933333 C0.183503181,35.8846026 0.560401827,37.8547547 1.25866667,39.72 C1.86206865,41.3215415 2.80760942,42.7721594 4.02933333,43.9706667 C5.22778601,45.1924573 6.67841957,46.1380082 8.28,46.7413333 C10.1444036,47.4393024 12.1136289,47.8161962 14.104,47.856 C16.6666667,47.9733333 17.4826667,48 24,48 C30.5173333,48 31.3333333,47.9733333 33.8933333,47.856 C35.8846026,47.8164968 37.8547547,47.4395982 39.72,46.7413333 C42.945079,45.4945454 45.4945454,42.945079 46.7413333,39.72 C47.4393024,37.8555964 47.8161962,35.8863711 47.856,33.896 C47.9733333,31.3333333 48,30.5173333 48,24 C48,17.4826667 47.9733333,16.6666667 47.856,14.1066667 Z M43.536,33.6986667 C43.5176008,35.2195075 43.2379757,36.725875 42.7093333,38.152 C41.9026845,40.2460655 40.2482596,41.901459 38.1546667,42.7093333 C36.7276859,43.2382248 35.2203996,43.517853 33.6986667,43.536 C31.1653333,43.6506667 30.408,43.6746667 24,43.6746667 C17.592,43.6746667 16.832,43.6506667 14.3013333,43.536 C12.7804977,43.5175479 11.2741392,43.2379245 9.848,42.7093333 C8.80449003,42.3252355 7.86042659,41.7119588 7.08533333,40.9146667 C6.28837384,40.1403416 5.67511806,39.1972216 5.29066667,38.1546667 C4.761724,36.7277 4.48209412,35.2204047 4.464,33.6986667 C4.34933333,31.1653333 4.32533333,30.408 4.32533333,24 C4.32533333,17.592 4.34933333,16.832 4.464,14.3013333 C4.48245208,12.7804977 4.76207552,11.2741392 5.29066667,9.848 C5.67476452,8.80449003 6.28804125,7.86042659 7.08533333,7.08533333 C7.8596584,6.28837384 8.80277836,5.67511806 9.84533333,5.29066667 C11.2723141,4.76177523 12.7796004,4.48214701 14.3013333,4.464 C16.8346667,4.34933333 17.592,4.32533333 24,4.32533333 C30.408,4.32533333 31.168,4.34933333 33.6986667,4.464 C35.2195023,4.48245208 36.7258608,4.76207552 38.152,5.29066667 C39.19551,5.67476452 40.1395734,6.28804125 40.9146667,7.08533333 C41.7116262,7.8596584 42.3248819,8.80277836 42.7093333,9.84533333 C43.2382248,11.2723141 43.517853,12.7796004 43.536,14.3013333 C43.6506667,16.8346667 43.6746667,17.592 43.6746667,24 C43.6746667,30.408 43.6506667,31.168 43.536,33.6986667 L43.536,33.6986667 Z M24,11.6746667 C17.1929064,11.6746667 11.6746667,17.1929064 11.6746667,24 C11.6746667,30.8070936 17.1929064,36.3253333 24,36.3253333 C30.8070936,36.3253333 36.3253333,30.8070936 36.3253333,24 C36.3253333,20.7311184 35.0267752,17.5961216 32.7153268,15.2846732 C30.4038784,12.9732248 27.2688816,11.6746667 24,11.6746667 Z M24,32 C19.581722,32 16,28.418278 16,24 C16,19.581722 19.581722,16 24,16 C28.418278,16 32,19.581722 32,24 C32,28.418278 28.418278,32 24,32 L24,32 Z M39.6906667,11.1893333 C39.6906667,12.7799134 38.4012467,14.0693333 36.8106667,14.0693333 C35.2200866,14.0693333 33.9306667,12.7799134 33.9306667,11.1893333 C33.9306667,9.59875325 35.2200866,8.30933333 36.8106667,8.30933333 C38.4012467,8.30933333 39.6906667,9.59875325 39.6906667,11.1893333 L39.6906667,11.1893333 Z" id="Shape"></path>
        </g>
    </g>
</svg>