<?xml version="1.0" encoding="UTF-8"?><!DOCTYPE svg PUBLIC "-//W3C//DTD SVG 1.1//EN" "http://www.w3.org/Graphics/SVG/1.1/DTD/svg11.dtd"><svg xmlns="http://www.w3.org/2000/svg" xmlns:xlink="http://www.w3.org/1999/xlink" height="100px" id="Layer_1" version="1.1" viewBox="0 0 100 100" width="100px" xml:space="preserve"><defs><path id="SVGID_1_" d="M0 0h100v100H0z"/></defs><path d="M95 20.001C95 12.119 87.884 5 80 5H20C12.116 5 5 12.119 5 20.001v59.998C5 87.881 12.116 95 20.001 95H50V61H39V46h11v-5.844C50 30.077 57.568 21 66.875 21H79v15H66.875C65.548 36 64 37.611 64 40.024V46h15v15H64v34h16c7.884 0 15-7.119 15-15.001V20.001z"/><metadata><rdf:RDF xmlns:rdf="http://www.w3.org/1999/02/22-rdf-syntax-ns#" xmlns:rdfs="http://www.w3.org/2000/01/rdf-schema#" xmlns:dc="http://purl.org/dc/elements/1.1/"><rdf:Description about="https://iconscout.com/legal#licenses" dc:title="facebook" dc:description="facebook" dc:publisher="Iconscout" dc:date="2017-09-19" dc:format="image/svg+xml" dc:language="en"><dc:creator><rdf:Bag><rdf:li>Vincent Le Moign</rdf:li></rdf:Bag></dc:creator></rdf:Description></rdf:RDF></metadata></svg>