<?xml version="1.0" encoding="UTF-8"?>
<svg width="165px" height="30px" viewBox="0 0 165 30" version="1.1" xmlns="http://www.w3.org/2000/svg" xmlns:xlink="http://www.w3.org/1999/xlink">
    <!-- Generator: Sketch 53.2 (72643) - https://sketchapp.com -->
    <title>Group 2</title>
    <desc>Created with Sketch.</desc>
    <g id="Page-1" stroke="none" stroke-width="1" fill="none" fill-rule="evenodd">
        <g id="Artboard-3" transform="translate(-121.000000, -148.000000)">
            <g id="Group-2" transform="translate(121.000000, 148.000000)">
                <polygon id="Fill-36" fill="#F71C06" points="4.226 23.9287 3.058 23.9287 2.389 24.9327 1.712 23.9287 0.508 23.9287 1.772 25.7507 0.389 27.7737 1.571 27.7737 2.374 26.5607 3.177 27.7737 4.382 27.7737 2.961 25.7277"></polygon>
                <polygon id="Fill-38" fill="#F71C06" points="5.59552404e-14 4.8974 4.955 4.8974 4.955 18.0454 10.398 18.0454 10.398 4.8974 15.351 4.8974 15.351 0.3664 5.59552404e-14 0.3664"></polygon>
                <polygon id="Fill-40" fill="#F71C06" points="21.6435 11.311 31.0975 11.311 31.0975 7.101 21.6435 7.101 21.6435 4.897 31.0975 4.897 31.0975 0.366 16.1965 0.366 16.1965 18.045 31.1005 18.045 31.1005 13.514 21.6435 13.514"></polygon>
                <path d="M39.5913,13.5141 L37.4613,13.5141 L37.4613,4.8971 L39.1943,4.8971 C43.1323,4.8971 43.4803,7.9921 43.4803,9.1041 C43.4803,10.7651 42.9843,13.5141 39.5913,13.5141 M40.9523,0.3661 L32.0143,0.3661 L32.0143,18.0451 L39.8893,18.0451 C46.0543,18.0451 48.9273,14.6041 48.9273,9.1801 C48.9273,4.7241 46.8443,0.3661 40.9523,0.3661" id="Fill-42" fill="#F71C06"></path>
                <polygon id="Fill-44" fill="#F71C06" points="56.957 5.6616 60.604 0.3326 56.613 0.3326 55.092 2.9666 53.614 0.3326 49.622 0.3326 53.269 5.6616 49.481 11.2326 53.472 11.2326 55.092 8.4776 56.753 11.2326 60.746 11.2326"></polygon>
                <polygon id="Fill-46" fill="#FFFFFF" points="5.6305 27.0885 9.3855 27.0885 9.3855 26.2935 5.6305 26.2935"></polygon>
                <polygon id="Fill-48" fill="#FFFFFF" points="5.6305 25.4975 9.3855 25.4975 9.3855 24.7025 5.6305 24.7025"></polygon>
                <polygon id="Fill-49" fill="#FFFFFF" points="11.2075 27.7735 12.2635 27.7735 12.2635 23.9285 11.2075 23.9285"></polygon>
                <polygon id="Fill-50" fill="#FFFFFF" points="11.2075 23.3335 12.2635 23.3335 12.2635 22.4635 11.2075 22.4635"></polygon>
                <path d="M15.1489,23.8247 C14.7029,23.8247 14.2419,24.0327 13.9739,24.4637 L13.9519,24.4637 L13.9519,23.9287 L12.9479,23.9287 L12.9479,27.7737 L14.0039,27.7737 L14.0039,25.7577 C14.0039,24.9767 14.2489,24.6577 14.8219,24.6577 C15.3129,24.6577 15.4989,24.9697 15.4989,25.6017 L15.4989,27.7737 L16.5539,27.7737 L16.5539,25.4077 C16.5539,24.4567 16.2719,23.8247 15.1489,23.8247" id="Fill-51" fill="#FFFFFF"></path>
                <path d="M19.0302,27.0815 C18.3762,27.0815 18.1002,26.4495 18.1002,25.8475 C18.1002,25.2145 18.3392,24.6205 19.0302,24.6205 C19.7142,24.6205 19.9372,25.2145 19.9372,25.8395 C19.9372,26.4715 19.7292,27.0815 19.0302,27.0815 L19.0302,27.0815 Z M19.9002,24.3965 L19.8932,24.3965 C19.6472,24.0185 19.2012,23.8245 18.7472,23.8245 C17.6172,23.8245 17.0452,24.7835 17.0452,25.8175 C17.0452,26.8805 17.6102,27.8775 18.7702,27.8775 C19.2602,27.8775 19.6922,27.6985 19.9372,27.2825 L19.9522,27.2825 L19.9522,27.7735 L20.9562,27.7735 L20.9562,22.4635 L19.9002,22.4635 L19.9002,24.3965 Z" id="Fill-52" fill="#FFFFFF"></path>
                <path d="M22.4731,25.438 C22.4881,25.141 22.6811,24.62 23.3501,24.62 C23.8631,24.62 24.0941,24.903 24.1911,25.438 L22.4731,25.438 Z M23.3801,23.825 C22.2121,23.825 21.4171,24.702 21.4171,25.855 C21.4171,27.044 22.1681,27.877 23.3801,27.877 C24.2501,27.877 24.8821,27.491 25.1801,26.584 L24.2501,26.584 C24.1831,26.821 23.8411,27.082 23.4171,27.082 C22.8291,27.082 22.5021,26.777 22.4731,26.107 L25.2461,26.107 C25.3211,24.925 24.6891,23.825 23.3801,23.825 L23.3801,23.825 Z" id="Fill-53" fill="#FFFFFF"></path>
                <path d="M27.6631,27.0815 C26.9791,27.0815 26.7411,26.4865 26.7411,25.8625 C26.7411,25.2375 26.9641,24.6205 27.6561,24.6205 C28.3321,24.6205 28.5781,25.2525 28.5781,25.8625 C28.5781,26.4865 28.3541,27.0815 27.6631,27.0815 M27.8861,23.8245 C27.4101,23.8245 26.9941,24.0105 26.7411,24.4195 L26.7261,24.4195 L26.7261,23.9285 L25.7221,23.9285 L25.7221,29.1265 L26.7781,29.1265 L26.7781,27.2975 L26.7931,27.2975 C27.0461,27.6765 27.4841,27.8775 27.9461,27.8775 C29.0681,27.8775 29.6341,26.9175 29.6341,25.8915 C29.6341,24.7985 29.0911,23.8245 27.8861,23.8245" id="Fill-54" fill="#FFFFFF"></path>
                <path d="M30.9868,25.438 C31.0018,25.141 31.1948,24.62 31.8638,24.62 C32.3778,24.62 32.6078,24.903 32.7048,25.438 L30.9868,25.438 Z M31.8938,23.825 C30.7268,23.825 29.9308,24.702 29.9308,25.855 C29.9308,27.044 30.6818,27.877 31.8938,27.877 C32.7638,27.877 33.3958,27.491 33.6938,26.584 L32.7638,26.584 C32.6968,26.821 32.3548,27.082 31.9308,27.082 C31.3438,27.082 31.0168,26.777 30.9868,26.107 L33.7608,26.107 C33.8348,24.925 33.2028,23.825 31.8938,23.825 L31.8938,23.825 Z" id="Fill-55" fill="#FFFFFF"></path>
                <path d="M36.4375,23.8247 C35.9915,23.8247 35.5305,24.0327 35.2625,24.4637 L35.2405,24.4637 L35.2405,23.9287 L34.2365,23.9287 L34.2365,27.7737 L35.2915,27.7737 L35.2915,25.7577 C35.2915,24.9767 35.5375,24.6577 36.1105,24.6577 C36.6015,24.6577 36.7865,24.9697 36.7865,25.6017 L36.7865,27.7737 L37.8425,27.7737 L37.8425,25.4077 C37.8425,24.4567 37.5605,23.8247 36.4375,23.8247" id="Fill-56" fill="#FFFFFF"></path>
                <path d="M40.3188,27.0815 C39.6638,27.0815 39.3888,26.4495 39.3888,25.8475 C39.3888,25.2145 39.6268,24.6205 40.3188,24.6205 C41.0028,24.6205 41.2258,25.2145 41.2258,25.8395 C41.2258,26.4715 41.0178,27.0815 40.3188,27.0815 L40.3188,27.0815 Z M41.1888,24.3965 L41.1808,24.3965 C40.9358,24.0185 40.4898,23.8245 40.0358,23.8245 C38.9058,23.8245 38.3328,24.7835 38.3328,25.8175 C38.3328,26.8805 38.8988,27.8775 40.0588,27.8775 C40.5488,27.8775 40.9808,27.6985 41.2258,27.2825 L41.2408,27.2825 L41.2408,27.7735 L42.2448,27.7735 L42.2448,22.4635 L41.1888,22.4635 L41.1888,24.3965 Z" id="Fill-57" fill="#FFFFFF"></path>
                <path d="M43.7612,25.438 C43.7762,25.141 43.9692,24.62 44.6382,24.62 C45.1522,24.62 45.3822,24.903 45.4792,25.438 L43.7612,25.438 Z M44.6682,23.825 C43.5012,23.825 42.7052,24.702 42.7052,25.855 C42.7052,27.044 43.4562,27.877 44.6682,27.877 C45.5382,27.877 46.1712,27.491 46.4682,26.584 L45.5382,26.584 C45.4712,26.821 45.1292,27.082 44.7052,27.082 C44.1182,27.082 43.7912,26.777 43.7612,26.107 L46.5352,26.107 C46.6092,24.925 45.9772,23.825 44.6682,23.825 L44.6682,23.825 Z" id="Fill-58" fill="#FFFFFF"></path>
                <path d="M49.2119,23.8247 C48.7659,23.8247 48.3049,24.0327 48.0369,24.4637 L48.0149,24.4637 L48.0149,23.9287 L47.0109,23.9287 L47.0109,27.7737 L48.0669,27.7737 L48.0669,25.7577 C48.0669,24.9767 48.3119,24.6577 48.8849,24.6577 C49.3759,24.6577 49.5619,24.9697 49.5619,25.6017 L49.5619,27.7737 L50.6169,27.7737 L50.6169,25.4077 C50.6169,24.4567 50.3349,23.8247 49.2119,23.8247" id="Fill-59" fill="#FFFFFF"></path>
                <path d="M52.6098,22.7758 L51.5538,22.7758 L51.5538,23.9288 L50.9148,23.9288 L50.9148,24.6348 L51.5538,24.6348 L51.5538,26.9028 C51.5538,27.6688 52.1188,27.8178 52.7658,27.8178 C52.9738,27.8178 53.2048,27.8108 53.3828,27.7808 L53.3828,26.9548 C53.2718,26.9778 53.1678,26.9848 53.0558,26.9848 C52.6988,26.9848 52.6098,26.8958 52.6098,26.5388 L52.6098,24.6348 L53.3828,24.6348 L53.3828,23.9288 L52.6098,23.9288 L52.6098,22.7758 Z" id="Fill-60" fill="#FFFFFF"></path>
                <polygon id="Fill-61" fill="#FFFFFF" points="53.7695 27.7735 54.8255 27.7735 54.8255 22.4635 53.7695 22.4635"></polygon>
                <path d="M57.0786,26.561 L57.0636,26.561 L56.1936,23.929 L55.0636,23.929 L56.4166,27.535 C56.5356,27.84 56.4166,28.219 56.0526,28.256 C55.8446,28.264 55.6366,28.234 55.4356,28.219 L55.4356,29.089 C55.6506,29.112 55.8666,29.126 56.0816,29.126 C56.8106,29.126 57.1756,28.874 57.4056,28.256 L59.0126,23.929 L57.9186,23.929 L57.0786,26.561 Z" id="Fill-62" fill="#FFFFFF"></path>
                <path d="M63.0049,27.0815 C62.2909,27.0815 62.0759,26.4645 62.0759,25.8545 C62.0759,25.2375 62.2909,24.6205 63.0049,24.6205 C63.7269,24.6205 63.9419,25.2375 63.9419,25.8545 C63.9419,26.4645 63.7269,27.0815 63.0049,27.0815 M63.0049,23.8245 C61.7999,23.8245 61.0199,24.6275 61.0199,25.8545 C61.0199,27.0745 61.7999,27.8775 63.0049,27.8775 C64.2169,27.8775 64.9979,27.0745 64.9979,25.8545 C64.9979,24.6275 64.2169,23.8245 63.0049,23.8245" id="Fill-63" fill="#FFFFFF"></path>
                <path d="M66.4033,24.6425 L66.3883,24.6425 L66.3883,23.9285 L65.3843,23.9285 L65.3843,27.7735 L66.4403,27.7735 L66.4403,26.0405 C66.4403,25.3635 66.7083,24.8065 67.4813,24.8065 C67.6083,24.8065 67.7643,24.8205 67.8613,24.8435 L67.8613,23.8615 C67.7943,23.8395 67.7043,23.8245 67.6303,23.8245 C67.1173,23.8245 66.5963,24.1595 66.4033,24.6425" id="Fill-64" fill="#FFFFFF"></path>
                <path d="M69.9204,26.8657 C69.2734,26.8657 69.0654,26.2637 69.0654,25.7137 C69.0654,25.1407 69.3254,24.6197 69.9204,24.6197 C70.6044,24.6197 70.8204,25.1777 70.8204,25.8027 C70.8204,26.3527 70.5224,26.8657 69.9204,26.8657 L69.9204,26.8657 Z M70.8204,24.4417 L70.8054,24.4417 C70.5524,23.9957 70.1654,23.8247 69.6604,23.8247 C68.5814,23.8247 68.0094,24.7317 68.0094,25.7277 C68.0094,26.7837 68.5004,27.6617 69.6524,27.6617 C70.1134,27.6617 70.5744,27.4687 70.8054,27.0667 L70.8204,27.0667 L70.8204,27.5727 C70.8274,28.1227 70.5604,28.5247 69.9724,28.5247 C69.6004,28.5247 69.2804,28.3907 69.1844,27.9957 L68.1354,27.9957 C68.1874,28.8737 69.0724,29.2307 69.8314,29.2307 C71.6014,29.2307 71.8234,28.1597 71.8234,27.5277 L71.8234,23.9287 L70.8204,23.9287 L70.8204,24.4417 Z" id="Fill-65" fill="#FFFFFF"></path>
                <path d="M74.7685,26.2861 C74.7685,26.5161 74.7385,27.1711 73.9135,27.1711 C73.5715,27.1711 73.2665,27.0741 73.2665,26.6801 C73.2665,26.2931 73.5635,26.1821 73.8915,26.1151 C74.2185,26.0551 74.5895,26.0481 74.7685,25.8911 L74.7685,26.2861 Z M75.8245,24.9171 C75.8245,23.9951 74.9025,23.8251 74.1365,23.8251 C73.2735,23.8251 72.3885,24.1221 72.3295,25.1111 L73.3855,25.1111 C73.4225,24.6941 73.6825,24.5311 74.0835,24.5311 C74.4565,24.5311 74.7685,24.5981 74.7685,25.0511 C74.7685,25.4831 74.1655,25.4601 73.5185,25.5571 C72.8645,25.6461 72.2105,25.8541 72.2105,26.7241 C72.2105,27.5131 72.7905,27.8771 73.5185,27.8771 C73.9875,27.8771 74.4785,27.7511 74.8125,27.4011 C74.8205,27.5281 74.8505,27.6541 74.8875,27.7731 L75.9575,27.7731 C75.8615,27.6171 75.8245,27.2671 75.8245,26.9181 L75.8245,24.9171 Z" id="Fill-66" fill="#FFFFFF"></path>
                <path d="M78.6943,23.8247 C78.2483,23.8247 77.7873,24.0327 77.5193,24.4637 L77.4973,24.4637 L77.4973,23.9287 L76.4933,23.9287 L76.4933,27.7737 L77.5493,27.7737 L77.5493,25.7577 C77.5493,24.9767 77.7953,24.6577 78.3673,24.6577 C78.8583,24.6577 79.0443,24.9697 79.0443,25.6017 L79.0443,27.7737 L80.1003,27.7737 L80.1003,25.4077 C80.1003,24.4567 79.8173,23.8247 78.6943,23.8247" id="Fill-67" fill="#FFFFFF"></path>
                <polygon id="Fill-68" fill="#FFFFFF" points="80.6345 23.3335 81.6905 23.3335 81.6905 22.4635 80.6345 22.4635"></polygon>
                <polygon id="Fill-69" fill="#FFFFFF" points="80.6345 27.7735 81.6905 27.7735 81.6905 23.9285 80.6345 23.9285"></polygon>
                <polygon id="Fill-70" fill="#FFFFFF" points="85.5278 24.7241 85.5278 23.9291 82.2858 23.9291 82.2858 24.7241 84.1368 24.7241 82.1368 26.9771 82.1368 27.7731 85.6688 27.7731 85.6688 26.9771 83.5278 26.9771"></polygon>
                <path d="M86.9555,25.438 C86.9705,25.141 87.1635,24.62 87.8325,24.62 C88.3465,24.62 88.5765,24.903 88.6735,25.438 L86.9555,25.438 Z M87.8625,23.825 C86.6955,23.825 85.8995,24.702 85.8995,25.855 C85.8995,27.044 86.6505,27.877 87.8625,27.877 C88.7325,27.877 89.3645,27.491 89.6625,26.584 L88.7325,26.584 C88.6655,26.821 88.3235,27.082 87.8995,27.082 C87.3125,27.082 86.9855,26.777 86.9555,26.107 L89.7295,26.107 C89.8035,24.925 89.1715,23.825 87.8625,23.825 L87.8625,23.825 Z" id="Fill-71" fill="#FFFFFF"></path>
                <path d="M92.0268,27.0815 C91.3728,27.0815 91.0968,26.4495 91.0968,25.8475 C91.0968,25.2145 91.3358,24.6205 92.0268,24.6205 C92.7108,24.6205 92.9338,25.2145 92.9338,25.8395 C92.9338,26.4715 92.7258,27.0815 92.0268,27.0815 L92.0268,27.0815 Z M92.8968,24.3965 L92.8898,24.3965 C92.6438,24.0185 92.1978,23.8245 91.7438,23.8245 C90.6138,23.8245 90.0418,24.7835 90.0418,25.8175 C90.0418,26.8805 90.6068,27.8775 91.7668,27.8775 C92.2568,27.8775 92.6888,27.6985 92.9338,27.2825 L92.9488,27.2825 L92.9488,27.7735 L93.9528,27.7735 L93.9528,22.4635 L92.8968,22.4635 L92.8968,24.3965 Z" id="Fill-72" fill="#FFFFFF"></path>
                <polygon id="Fill-73" fill="#FFFFFF" points="96.2129 23.4453 97.8039 23.4453 97.8039 27.7733 98.9719 27.7733 98.9719 23.4453 100.5639 23.4453 100.5639 22.4643 96.2129 22.4643"></polygon>
                <polygon id="Fill-74" fill="#FFFFFF" points="102.1914 25.4902 104.7644 25.4902 104.7644 24.5832 102.1914 24.5832 102.1914 23.4452 104.9954 23.4452 104.9954 22.4642 101.0244 22.4642 101.0244 27.7732 105.0544 27.7732 105.0544 26.7912 102.1914 26.7912"></polygon>
                <path d="M107.7534,26.7915 L106.7124,26.7915 L106.7124,23.4455 L107.5454,23.4455 C108.7054,23.4455 109.0774,24.1295 109.0774,25.2005 C109.0774,26.3745 108.4304,26.7915 107.7534,26.7915 M107.8354,22.4635 L105.5454,22.4635 L105.5454,27.7735 L107.8354,27.7735 C109.4564,27.7735 110.2444,26.6275 110.2444,25.0885 C110.2444,23.3265 109.2114,22.4635 107.8354,22.4635" id="Fill-75" fill="#FFFFFF"></path>
                <path d="M113.583,25.438 C113.598,25.141 113.791,24.62 114.46,24.62 C114.974,24.62 115.204,24.903 115.301,25.438 L113.583,25.438 Z M114.49,23.825 C113.323,23.825 112.527,24.702 112.527,25.855 C112.527,27.044 113.278,27.877 114.49,27.877 C115.36,27.877 115.992,27.491 116.29,26.584 L115.36,26.584 C115.293,26.821 114.951,27.082 114.527,27.082 C113.94,27.082 113.613,26.777 113.583,26.107 L116.357,26.107 C116.431,24.925 115.799,23.825 114.49,23.825 L114.49,23.825 Z" id="Fill-76" fill="#FFFFFF"></path>
                <polygon id="Fill-77" fill="#FFFFFF" points="119.063 23.9287 118.253 26.5537 118.238 26.5537 117.427 23.9287 116.319 23.9287 117.635 27.7737 118.811 27.7737 120.112 23.9287"></polygon>
                <path d="M121.123,25.438 C121.138,25.141 121.331,24.62 122,24.62 C122.514,24.62 122.744,24.903 122.841,25.438 L121.123,25.438 Z M122.03,23.825 C120.863,23.825 120.067,24.702 120.067,25.855 C120.067,27.044 120.818,27.877 122.03,27.877 C122.9,27.877 123.532,27.491 123.83,26.584 L122.9,26.584 C122.833,26.821 122.491,27.082 122.067,27.082 C121.48,27.082 121.152,26.777 121.123,26.107 L123.896,26.107 C123.971,24.925 123.339,23.825 122.03,23.825 L122.03,23.825 Z" id="Fill-78" fill="#FFFFFF"></path>
                <path d="M126.5732,23.8247 C126.1272,23.8247 125.6662,24.0327 125.3982,24.4637 L125.3762,24.4637 L125.3762,23.9287 L124.3722,23.9287 L124.3722,27.7737 L125.4282,27.7737 L125.4282,25.7577 C125.4282,24.9767 125.6742,24.6577 126.2462,24.6577 C126.7372,24.6577 126.9232,24.9697 126.9232,25.6017 L126.9232,27.7737 L127.9792,27.7737 L127.9792,25.4077 C127.9792,24.4567 127.6962,23.8247 126.5732,23.8247" id="Fill-79" fill="#FFFFFF"></path>
                <path d="M129.9712,22.7758 L128.9152,22.7758 L128.9152,23.9288 L128.2762,23.9288 L128.2762,24.6348 L128.9152,24.6348 L128.9152,26.9028 C128.9152,27.6688 129.4802,27.8178 130.1272,27.8178 C130.3362,27.8178 130.5662,27.8108 130.7442,27.7808 L130.7442,26.9548 C130.6332,26.9778 130.5292,26.9848 130.4172,26.9848 C130.0602,26.9848 129.9712,26.8958 129.9712,26.5388 L129.9712,24.6348 L130.7442,24.6348 L130.7442,23.9288 L129.9712,23.9288 L129.9712,22.7758 Z" id="Fill-80" fill="#FFFFFF"></path>
                <path d="M75.2705,7.8374 C74.6365,8.2854 73.7765,8.5084 72.6885,8.5084 L67.3285,8.5084 L67.3285,2.4924 L72.9925,2.4924 C73.7845,2.4924 74.4175,2.6124 74.8915,2.8524 C75.7775,3.3074 76.2205,4.1624 76.2205,5.4174 C76.2205,6.5834 75.9035,7.3904 75.2705,7.8374 L75.2705,7.8374 Z M79.3125,17.6524 C78.9445,17.4924 78.6885,17.1334 78.5455,16.5734 C78.4575,16.2464 78.4015,15.7474 78.3775,15.0764 L78.2935,12.7144 C78.2535,11.6924 78.0605,10.9534 77.7125,10.4984 C77.3645,10.0424 76.8475,9.6754 76.1605,9.3954 C76.9425,8.9874 77.5525,8.4484 77.9875,7.7774 C78.4235,7.1064 78.6415,6.2434 78.6415,5.1894 C78.6415,3.1684 77.8295,1.7814 76.2055,1.0304 C75.3505,0.6394 74.2635,0.4434 72.9455,0.4434 L64.9435,0.4434 L64.9435,18.0474 L67.3285,18.0474 L67.3285,10.4984 L72.6025,10.4984 C73.5495,10.4984 74.2445,10.6064 74.6875,10.8214 C75.4625,11.2124 75.8785,11.9834 75.9325,13.1344 L76.0765,16.0704 C76.1085,16.7574 76.1485,17.2214 76.1965,17.4614 C76.2445,17.7004 76.3085,17.8964 76.3885,18.0474 L79.3125,18.0474 L79.3125,17.6524 Z" id="Fill-81" fill="#FFFFFF"></path>
                <polygon id="Fill-82" fill="#FFFFFF" points="82.0925 18.0475 84.2855 18.0475 84.2855 5.2725 82.0925 5.2725"></polygon>
                <polygon id="Fill-83" fill="#FFFFFF" points="82.0925 2.8885 84.2855 2.8885 84.2855 0.4435 82.0925 0.4435"></polygon>
                <path d="M89.7759,8.2314 C90.3689,7.2254 91.3169,6.7234 92.6199,6.7234 C94.0889,6.7234 95.1239,7.3134 95.7249,8.4944 C96.1039,9.2444 96.2939,10.2184 96.2939,11.4154 C96.2939,12.7394 96.0309,13.9424 95.5049,15.0234 C94.9799,16.1054 94.0099,16.6454 92.5959,16.6454 C91.3089,16.6454 90.3689,16.1904 89.7759,15.2814 C89.1839,14.3714 88.8869,13.2344 88.8869,11.8704 C88.8869,10.4494 89.1839,9.2364 89.7759,8.2314 M92.3939,18.5034 C94.4969,18.5034 96.0479,17.8284 97.0469,16.4804 C98.0469,15.1304 98.5469,13.4224 98.5469,11.3554 C98.5469,9.2154 97.9799,7.5954 96.8449,6.4944 C95.7109,5.3924 94.3219,4.8414 92.6799,4.8414 C90.8469,4.8414 89.3869,5.4804 88.3009,6.7574 C87.2139,8.0344 86.6709,9.7504 86.6709,11.9054 C86.6709,13.9174 87.1859,15.5204 88.2169,16.7134 C89.2489,17.9064 90.6409,18.5034 92.3939,18.5034" id="Fill-84" fill="#FFFFFF"></path>
                <path d="M103.9995,16.0107 L103.9995,2.4927 L108.1355,2.4927 C110.0185,2.4927 111.3835,3.0957 112.2315,4.3027 C113.0785,5.5087 113.5025,7.2017 113.5025,9.3837 C113.5025,9.9507 113.4445,10.5657 113.3265,11.2287 C113.1235,12.3397 112.7915,13.2507 112.3315,13.9617 C111.7525,14.8477 111.0105,15.4477 110.1045,15.7587 C109.5965,15.9267 108.9485,16.0107 108.1595,16.0107 L103.9995,16.0107 Z M114.9065,14.0457 C115.6005,12.5347 115.9475,10.8457 115.9475,8.9757 C115.9475,6.5547 115.3595,4.5697 114.1855,3.0197 C112.8685,1.3027 111.0165,0.4437 108.6265,0.4437 L101.5905,0.4437 L101.5905,18.0477 L108.6035,18.0477 C111.5835,18.0477 113.6845,16.7137 114.9065,14.0457 L114.9065,14.0457 Z" id="Fill-85" fill="#FFFFFF"></path>
                <path d="M126.8799,15.0239 C126.3549,16.1059 125.3849,16.6459 123.9709,16.6459 C122.6829,16.6459 121.7429,16.1909 121.1509,15.2809 C120.5579,14.3719 120.2619,13.2349 120.2619,11.8699 C120.2619,10.4499 120.5579,9.2369 121.1509,8.2319 C121.7429,7.2259 122.6909,6.7229 123.9949,6.7229 C125.4639,6.7229 126.4989,7.3139 127.0989,8.4949 C127.4789,9.2449 127.6679,10.2179 127.6679,11.4149 C127.6679,12.7399 127.4059,13.9429 126.8799,15.0239 M129.9209,11.3549 C129.9209,9.2159 129.3539,7.5959 128.2189,6.4939 C127.0849,5.3929 125.6969,4.8409 124.0539,4.8409 C122.2219,4.8409 120.7619,5.4809 119.6749,6.7569 C118.5879,8.0349 118.0449,9.7509 118.0449,11.9059 C118.0449,13.9179 118.5599,15.5199 119.5919,16.7129 C120.6229,17.9069 122.0159,18.5029 123.7689,18.5029 C125.8709,18.5029 127.4219,17.8289 128.4219,16.4799 C129.4219,15.1309 129.9209,13.4229 129.9209,11.3549" id="Fill-86" fill="#FFFFFF"></path>
                <path d="M144.2343,9.539 C143.6073,9.068 142.7173,8.696 141.5633,8.425 L139.1713,7.861 C137.5613,7.478 136.5283,7.159 136.0713,6.903 C135.3743,6.503 135.0263,5.872 135.0263,5.009 C135.0263,4.227 135.3203,3.539 135.9113,2.948 C136.5013,2.357 137.4693,2.061 138.8173,2.061 C140.4873,2.061 141.6713,2.52 142.3683,3.439 C142.7433,3.943 142.9883,4.666 143.1043,5.608 L145.3443,5.608 C145.3443,3.651 144.7163,2.227 143.4613,1.336 C142.2053,0.445 140.6793,1.77635684e-15 138.8833,1.77635684e-15 C136.9323,1.77635684e-15 135.4243,0.507 134.3593,1.522 C133.2943,2.537 132.7613,3.835 132.7613,5.417 C132.7613,6.879 133.3033,7.977 134.3863,8.712 C135.0133,9.136 136.0813,9.523 137.5903,9.875 L139.9013,10.414 C141.1553,10.709 142.0763,11.057 142.6643,11.456 C143.2453,11.864 143.5353,12.547 143.5353,13.506 C143.5353,14.785 142.8503,15.671 141.4803,16.166 C140.7723,16.422 139.9863,16.55 139.1253,16.55 C137.2013,16.55 135.8583,15.967 135.0963,14.8 C134.6963,14.177 134.4693,13.366 134.4153,12.368 L132.1733,12.368 C132.1503,14.269 132.7423,15.775 133.9503,16.885 C135.1583,18.004 136.8293,18.563 138.9643,18.563 C140.7953,18.563 142.4023,18.144 143.7853,17.305 C145.1683,16.466 145.8593,15.072 145.8593,13.122 C145.8593,11.557 145.3183,10.362 144.2343,9.539" id="Fill-87" fill="#FFFFFF"></path>
                <path d="M156.9092,11.5166 C156.9092,12.7706 156.7652,13.7576 156.4772,14.4766 C155.9482,15.8186 154.9522,16.4906 153.4902,16.4906 C152.4702,16.4906 151.7742,16.1066 151.4002,15.3396 C151.1982,14.9246 151.0972,14.3886 151.0972,13.7336 L151.0972,5.2126 L148.8912,5.2126 L148.8912,13.9376 C148.8912,15.0326 149.0682,15.9066 149.4212,16.5616 C150.0722,17.7846 151.2942,18.3956 153.0902,18.3956 C154.2422,18.3956 155.2222,18.0596 156.0292,17.3886 C156.4372,17.0536 156.7782,16.6416 157.0532,16.1546 L157.0292,18.0476 L159.0662,18.0476 L159.0662,5.2126 L156.9092,5.2126 L156.9092,11.5166 Z" id="Fill-88" fill="#FFFFFF"></path>
                <polygon id="Fill-89" fill="#FFFFFF" points="162.6495 18.0475 164.8065 18.0475 164.8065 0.4435 162.6495 0.4435"></polygon>
            </g>
        </g>
    </g>
</svg>