<?xml version="1.0" encoding="UTF-8"?>
<svg width="197px" height="198px" viewBox="0 0 197 198" version="1.1" xmlns="http://www.w3.org/2000/svg" xmlns:xlink="http://www.w3.org/1999/xlink">
    <!-- Generator: Sketch 48.1 (47250) - http://www.bohemiancoding.com/sketch -->
    <title>Group 2</title>
    <desc>Created with Sketch.</desc>
    <defs></defs>
    <g id="Page-1" stroke="none" stroke-width="1" fill="none" fill-rule="evenodd">
        <g id="PROJETO_WEB_TEDx_2018" transform="translate(-800.000000, -154.000000)">
            <g id="Group-127" transform="translate(0.000000, 0.520000)">
                <g id="Group-2" transform="translate(800.000000, 154.000000)">
                    <path d="M6.9364,187.2612 C6.2084,187.2612 5.6024,187.5032 5.1174,187.9882 C4.6324,188.4732 4.3904,189.0692 4.3904,189.7742 C4.3904,190.4792 4.6324,191.0742 5.1174,191.5602 C5.6024,192.0452 6.2084,192.2872 6.9364,192.2872 L18.0474,192.2872 C18.7764,192.2872 19.3814,192.0452 19.8674,191.5602 C20.3524,191.0742 20.5944,190.4692 20.5944,189.7412 C20.5944,189.0352 20.3524,188.4462 19.8674,187.9722 C19.3814,187.4982 18.7764,187.2612 18.0474,187.2612 L6.9364,187.2612 Z M17.7504,183.1272 C19.6024,183.1272 21.1734,183.7772 22.4624,185.0782 C23.7524,186.3792 24.3974,187.9442 24.3974,189.7742 C24.3974,191.6042 23.7584,193.1642 22.4794,194.4532 C21.2014,195.7432 19.6244,196.3882 17.7504,196.3882 L7.2344,196.3882 C5.3604,196.3882 3.7844,195.7432 2.5044,194.4532 C1.2264,193.1642 0.5864,191.6042 0.5864,189.7742 C0.5864,187.9222 1.2324,186.3512 2.5214,185.0612 C3.8114,183.7722 5.3814,183.1272 7.2344,183.1272 L17.7504,183.1272 Z" id="Fill-91" fill="#F41919"></path>
                    <path d="M16.4608,158.3623 C15.7768,158.3623 15.1988,158.6043 14.7248,159.0893 C14.2508,159.5743 14.0138,160.1593 14.0138,160.8423 C14.0138,161.5263 14.2508,162.1153 14.7248,162.6123 C15.1988,163.1073 15.7768,163.3563 16.4608,163.3563 L18.1478,163.3563 C18.8308,163.3563 19.4038,163.1073 19.8668,162.6123 C20.3298,162.1153 20.5618,161.5043 20.5618,160.7763 C20.5618,160.1143 20.3298,159.5473 19.8668,159.0733 C19.4038,158.5993 18.8308,158.3623 18.1478,158.3623 L16.4608,158.3623 Z M6.6718,158.6263 C6.0318,158.6263 5.4918,158.8413 5.0518,159.2713 C4.6098,159.7013 4.3908,160.2363 4.3908,160.8753 C4.3908,161.5153 4.6098,162.0443 5.0518,162.4633 C5.4918,162.8823 6.0318,163.0913 6.6718,163.0913 L8.0608,163.0913 C8.6558,163.0913 9.1628,162.8873 9.5818,162.4793 C10.0008,162.0713 10.2108,161.5593 10.2108,160.9423 L10.2108,160.6763 C10.2108,160.1033 10.0068,159.6183 9.5988,159.2223 C9.1898,158.8253 8.6778,158.6263 8.0608,158.6263 L6.6718,158.6263 Z M7.8958,154.5263 C9.5488,154.5263 10.9048,155.0443 11.9628,156.0803 C13.1528,154.8233 14.6418,154.1953 16.4278,154.1953 L18.0478,154.1953 C19.8128,154.1953 21.3118,154.8293 22.5458,156.0973 C23.7798,157.3643 24.3978,158.9023 24.3978,160.7103 L24.3978,160.9743 C24.3978,162.8043 23.7748,164.3533 22.5288,165.6213 C21.2838,166.8883 19.7788,167.5223 18.0158,167.5223 L16.4278,167.5223 C14.6638,167.5223 13.1758,166.8833 11.9628,165.6043 C10.7948,166.6623 9.4278,167.1913 7.8618,167.1913 L6.5728,167.1913 C4.9188,167.1913 3.5078,166.5913 2.3398,165.3893 C1.1718,164.1883 0.5868,162.7273 0.5868,161.0083 L0.5868,160.7103 C0.5868,158.9903 1.1718,157.5293 2.3398,156.3283 C3.5078,155.1263 4.9188,154.5263 6.5728,154.5263 L7.8958,154.5263 Z" id="Fill-93" fill="#F41919"></path>
                    <path d="M6.9364,110.6167 C6.2084,110.6167 5.6024,110.8587 5.1174,111.3437 C4.6324,111.8287 4.3904,112.4247 4.3904,113.1297 C4.3904,113.8347 4.6324,114.4307 5.1174,114.9157 C5.6024,115.4007 6.2084,115.6427 6.9364,115.6427 L18.0474,115.6427 C18.7764,115.6427 19.3814,115.4007 19.8674,114.9157 C20.3524,114.4307 20.5944,113.8247 20.5944,113.0967 C20.5944,112.3917 20.3524,111.8017 19.8674,111.3277 C19.3814,110.8537 18.7764,110.6167 18.0474,110.6167 L6.9364,110.6167 Z M17.7504,106.4827 C19.6024,106.4827 21.1734,107.1337 22.4624,108.4337 C23.7524,109.7347 24.3974,111.2997 24.3974,113.1297 C24.3974,114.9597 23.7584,116.5197 22.4794,117.8087 C21.2014,119.0987 19.6244,119.7437 17.7504,119.7437 L7.2344,119.7437 C5.3604,119.7437 3.7844,119.0987 2.5044,117.8087 C1.2264,116.5197 0.5864,114.9597 0.5864,113.1297 C0.5864,111.2777 1.2324,109.7067 2.5214,108.4167 C3.8114,107.1277 5.3814,106.4827 7.2344,106.4827 L17.7504,106.4827 Z" id="Fill-95" fill="#F41919"></path>
                    <polygon id="Fill-97" fill="#F41919" points="15.5018 91.5391 0.9178 84.5281 0.9178 80.0641 15.6998 87.1741 15.6998 82.6761 10.7388 82.6761 10.7388 78.6421 15.6998 78.6421 15.6998 76.8891 19.5358 76.8891 19.5358 78.6421 24.0668 78.6421 24.0668 82.6761 19.5358 82.6761 19.5358 91.5391"></polygon>
                    <polygon id="Fill-99" fill="#F41919" points="5.3817 42.3721 2.0747 42.3721 0.9177 37.9071 0.9177 33.8731 20.2967 33.8731 20.2967 29.0441 24.0677 29.0441 24.0677 42.9671 20.2967 42.9671 20.2967 37.9401 4.3237 37.9401"></polygon>
                    <path d="M16.4608,5.0732 C15.7768,5.0732 15.1988,5.3152 14.7248,5.8012 C14.2508,6.2852 14.0138,6.8692 14.0138,7.5532 C14.0138,8.2372 14.2508,8.8262 14.7248,9.3232 C15.1988,9.8192 15.7768,10.0672 16.4608,10.0672 L18.1478,10.0672 C18.8308,10.0672 19.4038,9.8192 19.8668,9.3232 C20.3298,8.8262 20.5618,8.2152 20.5618,7.4872 C20.5618,6.8262 20.3298,6.2582 19.8668,5.7842 C19.4038,5.3102 18.8308,5.0732 18.1478,5.0732 L16.4608,5.0732 Z M6.6718,5.3382 C6.0318,5.3382 5.4918,5.5522 5.0518,5.9822 C4.6098,6.4122 4.3908,6.9472 4.3908,7.5862 C4.3908,8.2252 4.6098,8.7552 5.0518,9.1742 C5.4918,9.5932 6.0318,9.8022 6.6718,9.8022 L8.0608,9.8022 C8.6558,9.8022 9.1628,9.5982 9.5818,9.1902 C10.0008,8.7822 10.2108,8.2702 10.2108,7.6522 L10.2108,7.3882 C10.2108,6.8152 10.0068,6.3292 9.5988,5.9332 C9.1898,5.5362 8.6778,5.3382 8.0608,5.3382 L6.6718,5.3382 Z M7.8958,1.2372 C9.5488,1.2372 10.9048,1.7552 11.9628,2.7912 C13.1528,1.5342 14.6418,0.9062 16.4278,0.9062 L18.0478,0.9062 C19.8128,0.9062 21.3118,1.5402 22.5458,2.8072 C23.7798,4.0752 24.3978,5.6132 24.3978,7.4212 L24.3978,7.6852 C24.3978,9.5152 23.7748,11.0642 22.5288,12.3322 C21.2838,13.5992 19.7788,14.2342 18.0158,14.2342 L16.4278,14.2342 C14.6638,14.2342 13.1758,13.5942 11.9628,12.3162 C10.7948,13.3742 9.4278,13.9032 7.8618,13.9032 L6.5728,13.9032 C4.9188,13.9032 3.5078,13.3022 2.3398,12.1002 C1.1718,10.8992 0.5868,9.4382 0.5868,7.7192 L0.5868,7.4212 C0.5868,5.7012 1.1718,4.2402 2.3398,3.0392 C3.5078,1.8382 4.9188,1.2372 6.5728,1.2372 L7.8958,1.2372 Z" id="Fill-101" fill="#F41919"></path>
                    <path d="M59.7616,51.9785 C63.9296,51.9785 67.4756,50.5885 70.3976,47.8105 C73.3206,45.0315 74.7816,41.6775 74.7816,37.7495 L74.7816,35.5935 L66.1576,35.5935 L66.1576,37.7495 C66.1576,39.6655 65.5106,41.1505 64.2176,42.2045 C62.9236,43.2585 61.4386,43.7855 59.7616,43.7855 C58.0846,43.7855 56.6586,43.2705 55.4856,42.2415 C54.3116,41.2105 53.7246,39.8095 53.7246,38.0365 L53.7246,14.1055 C53.7246,12.5245 54.2996,11.1825 55.4496,10.0805 C56.5996,8.9785 58.0366,8.4285 59.7616,8.4285 C61.5816,8.4285 63.0196,9.0745 64.0736,10.3685 C65.1276,11.6625 65.6546,13.1715 65.6546,14.8955 L74.4226,14.8955 C74.4226,13.2195 74.1586,11.5785 73.6316,9.9735 C73.1046,8.3685 72.3016,6.8115 71.2246,5.3015 C70.1466,3.7925 68.6016,2.5705 66.5886,1.6365 C64.5766,0.7025 62.2776,0.2355 59.6896,0.2355 C55.6166,0.2355 52.1086,1.6245 49.1606,4.4035 C46.2146,7.1825 44.7406,10.4875 44.7406,14.3215 L44.7406,37.8215 C44.7406,41.7015 46.2026,45.0315 49.1256,47.8105 C52.0476,50.5885 55.5936,51.9785 59.7616,51.9785" id="Fill-103" fill="#FFFFFF"></path>
                    <polygon id="Fill-105" fill="#FFFFFF" points="113.7655 42.8516 95.4395 42.8516 95.4395 29.1976 111.6095 29.1976 111.6095 20.8606 95.4395 20.8606 95.4395 9.3626 113.1905 9.3626 113.1905 0.9546 86.4555 0.9546 86.4555 51.2596 113.7655 51.2596"></polygon>
                    <path d="M133.6317,35.2339 C133.6317,30.1549 133.4877,24.5979 133.2007,18.5609 L147.4307,51.2599 L155.7667,51.2599 L155.7667,0.9539 L147.5737,0.9539 L147.5737,16.6919 C147.5737,22.2019 147.7177,27.8559 148.0057,33.6529 L133.7767,0.9539 L125.4397,0.9539 L125.4397,51.2599 L133.6317,51.2599 L133.6317,35.2339 Z" id="Fill-107" fill="#FFFFFF"></path>
                    <polygon id="Fill-109" fill="#FFFFFF" points="168.518 35.665 188.497 35.665 188.497 27.257 168.518 27.257"></polygon>
                    <polygon id="Fill-111" fill="#FFFFFF" points="51.3534 106.5034 60.5514 106.5034 60.5514 64.6064 70.8294 64.6064 70.8294 56.1974 41.1484 56.1974 41.1484 64.6064 51.3534 64.6064"></polygon>
                    <polygon id="Fill-112" fill="#FFFFFF" points="108.4325 98.0952 90.1075 98.0952 90.1075 84.4402 106.2775 84.4402 106.2775 76.1042 90.1075 76.1042 90.1075 64.6062 107.8585 64.6062 107.8585 56.1982 81.1235 56.1982 81.1235 106.5032 108.4325 106.5032"></polygon>
                    <polygon id="Fill-113" fill="#FFFFFF" points="117.475 90.908 137.454 90.908 137.454 82.5 117.475 82.5"></polygon>
                    <polygon id="Fill-114" fill="#FFFFFF" points="45.4608 111.4409 45.4608 161.7479 71.6188 161.7479 71.6188 153.3389 54.4428 153.3389 54.4428 111.4409"></polygon>
                    <polygon id="Fill-115" fill="#FFFFFF" points="111.4647 161.7476 111.4647 111.4406 102.6247 111.4406 102.6247 131.1326 89.9767 131.1326 89.9767 111.4406 81.1377 111.4406 81.1377 161.7476 89.9767 161.7476 89.9767 139.6846 102.6247 139.6846 102.6247 161.7476"></polygon>
                    <path d="M138.8768,119.8496 L140.3138,119.8496 L145.3448,138.3916 L133.8468,138.3916 L138.8768,119.8496 Z M133.0568,146.7996 L146.1358,146.7996 L146.1358,161.7476 L154.6158,161.7476 L154.6158,139.7566 L146.4228,111.4406 L132.7688,111.4406 L124.5758,139.7566 L124.5758,161.7476 L133.0568,161.7476 L133.0568,146.7996 Z" id="Fill-116" fill="#FFFFFF"></path>
                    <path d="M195.3964,142.272 C194.6294,140.451 193.6234,138.942 192.3774,137.744 C191.1314,136.546 189.7544,135.469 188.2464,134.51 C186.7364,133.552 185.2394,132.69 183.7534,131.923 C182.2684,131.157 180.9034,130.402 179.6574,129.66 C178.4124,128.917 177.4054,128.078 176.6394,127.144 C175.8734,126.21 175.4894,125.192 175.4894,124.09 C175.4894,122.701 176.0644,121.491 177.2134,120.461 C178.3644,119.431 179.7054,118.916 181.2384,118.916 C182.9154,118.916 184.2454,119.526 185.2274,120.748 C186.2084,121.97 186.7004,123.539 186.7004,125.456 L195.7544,125.456 C195.7544,121.527 194.4864,118.089 191.9464,115.143 C189.4074,112.196 185.8374,110.723 181.2384,110.723 C177.1664,110.723 173.6924,112.076 170.8184,114.783 C167.9434,117.49 166.5054,120.808 166.5054,124.736 C166.5054,127.659 167.2244,130.163 168.6624,132.247 C170.0994,134.331 171.8354,135.96 173.8724,137.133 C175.9084,138.307 177.9454,139.397 179.9814,140.403 C182.0174,141.41 183.7534,142.607 185.1914,143.997 C186.6284,145.386 187.3474,147.015 187.3474,148.883 C187.3474,150.321 186.7724,151.578 185.6224,152.656 C184.4724,153.734 182.9394,154.273 181.0234,154.273 C179.3944,154.273 177.9324,153.747 176.6394,152.692 C175.3454,151.638 174.6994,150.153 174.6994,148.237 L174.6994,146.081 L165.9314,146.081 L165.9314,148.237 C165.9314,152.213 167.3924,155.579 170.3154,158.334 C173.2374,161.088 176.8784,162.466 181.2384,162.466 C185.4554,162.466 189.0594,161.077 192.0544,158.298 C195.0484,155.519 196.5454,152.213 196.5454,148.38 C196.5454,146.128 196.1634,144.092 195.3964,142.272" id="Fill-117" fill="#FFFFFF"></path>
                    <path d="M54.1346,190.8784 C54.1346,191.5364 53.9066,192.0874 53.4506,192.5334 C52.9936,192.9794 52.4156,193.2014 51.7156,193.2014 L49.2656,193.2014 L49.2656,178.3694 L51.7156,178.3694 C52.4156,178.3694 52.9936,178.5974 53.4506,179.0534 C53.9066,179.5094 54.1346,180.0664 54.1346,180.7244 L54.1346,190.8784 Z M51.8116,174.6454 L45.3186,174.6454 L45.3186,196.9254 L51.8116,196.9254 C53.5936,196.9254 55.1156,196.3204 56.3786,195.1114 C57.6416,193.9014 58.2726,192.4384 58.2726,190.7194 L58.2726,180.8524 C58.2726,179.1334 57.6416,177.6694 56.3786,176.4604 C55.1156,175.2504 53.5936,174.6454 51.8116,174.6454 Z" id="Fill-118" fill="#FFFFFF"></path>
                    <polygon id="Fill-119" fill="#FFFFFF" points="68.58 187.1543 75.742 187.1543 75.742 183.4623 68.58 183.4623 68.58 178.3693 76.442 178.3693 76.442 174.6453 64.601 174.6453 64.601 196.9253 76.697 196.9253 76.697 193.2013 68.58 193.2013"></polygon>
                    <path d="M96.4315,184.1309 C96.4315,184.5339 96.2675,184.8839 95.9385,185.1809 C95.6095,185.4779 95.2115,185.6269 94.7445,185.6269 L91.7205,185.6269 L91.7205,178.3699 L94.7445,178.3699 C95.2115,178.3699 95.6095,178.5179 95.9385,178.8149 C96.2675,179.1119 96.4315,179.4629 96.4315,179.8659 L96.4315,184.1309 Z M99.6945,186.6769 C100.1715,185.8279 100.4105,184.9369 100.4105,184.0029 L100.4105,180.0249 C100.4105,178.4759 99.8795,177.1919 98.8185,176.1729 C97.7575,175.1549 96.4205,174.6459 94.8085,174.6459 L87.8375,174.6459 L87.8375,196.9259 L91.7205,196.9259 L91.7205,189.3509 L93.9495,189.3509 L97.0685,196.9259 L101.4605,196.9259 L97.7045,188.6179 C98.5535,188.1729 99.2165,187.5259 99.6945,186.6769 Z" id="Fill-120" fill="#FFFFFF"></path>
                    <path d="M110.6219,186.5815 L112.8509,178.3695 L113.4869,178.3695 L115.7149,186.5815 L110.6219,186.5815 Z M110.1439,174.6455 L106.5169,187.1855 L106.5169,196.9255 L110.2719,196.9255 L110.2719,190.3055 L116.0649,190.3055 L116.0649,196.9255 L119.8209,196.9255 L119.8209,187.1855 L116.1919,174.6455 L110.1439,174.6455 Z" id="Fill-121" fill="#FFFFFF"></path>
                    <polygon id="Fill-122" fill="#FFFFFF" points="138.5956 178.3057 138.5956 174.6457 125.8316 174.6457 125.8316 178.3697 133.8846 178.3697 125.3546 193.2337 125.3546 196.9257 138.6586 196.9257 138.6586 193.2017 130.1286 193.2017"></polygon>
                    <path d="M148.1395,186.5815 L150.3675,178.3695 L151.0035,178.3695 L153.2315,186.5815 L148.1395,186.5815 Z M147.6615,174.6455 L144.0335,187.1855 L144.0335,196.9255 L147.7885,196.9255 L147.7885,190.3055 L153.5815,190.3055 L153.5815,196.9255 L157.3375,196.9255 L157.3375,187.1855 L153.7095,174.6455 L147.6615,174.6455 Z" id="Fill-123" fill="#FFFFFF"></path>
                    <path d="M151.2157,169.4893 C151.0357,169.7013 150.8077,169.8073 150.5317,169.8073 C150.2557,169.8073 149.7207,169.6113 148.9247,169.2183 C148.1287,168.8263 147.4547,168.6303 146.9037,168.6303 C145.9277,168.6303 145.1207,169.0493 144.4847,169.8873 C143.8477,170.7253 143.5287,171.7393 143.5287,172.9273 L146.9357,172.9273 C146.9557,172.6723 147.0517,172.4443 147.2217,172.2423 C147.3917,172.0413 147.6137,171.9403 147.8897,171.9403 C148.1657,171.9403 148.7017,172.1363 149.4977,172.5293 C150.2927,172.9213 150.9667,173.1173 151.5187,173.1173 C152.4737,173.1173 153.2747,172.6983 153.9217,171.8603 C154.5697,171.0223 154.8927,170.0093 154.8927,168.8213 L151.4867,168.8213 C151.4867,169.0543 151.3967,169.2773 151.2157,169.4893" id="Fill-124" fill="#FFFFFF"></path>
                    <path d="M173.0565,190.7827 C173.0565,191.5677 172.7755,192.2417 172.2135,192.8037 C171.6515,193.3657 170.9665,193.6477 170.1605,193.6477 C169.3745,193.6477 168.6965,193.3657 168.1225,192.8037 C167.5495,192.2417 167.2635,191.5677 167.2635,190.7827 L167.2635,180.7887 C167.2635,180.0037 167.5495,179.3297 168.1225,178.7677 C168.6965,178.2047 169.3745,177.9237 170.1605,177.9237 C170.9665,177.9237 171.6515,178.2047 172.2135,178.7677 C172.7755,179.3297 173.0565,180.0037 173.0565,180.7887 L173.0565,190.7827 Z M170.1605,174.3267 C168.2295,174.3267 166.6115,174.9737 165.3065,176.2687 C164.0005,177.5637 163.3485,179.1547 163.3485,181.0427 L163.3485,190.5287 C163.3485,192.4377 164.0005,194.0347 165.3065,195.3187 C166.6115,196.6017 168.2295,197.2437 170.1605,197.2437 C172.1125,197.2437 173.7305,196.6077 175.0145,195.3347 C176.2975,194.0607 176.9405,192.4587 176.9405,190.5287 L176.9405,180.9157 C176.9405,179.1127 176.2865,177.5637 174.9825,176.2687 C173.6775,174.9737 172.0705,174.3267 170.1605,174.3267 Z" id="Fill-125" fill="#FFFFFF"></path>
                </g>
            </g>
        </g>
    </g>
</svg>