<?xml version="1.0" encoding="UTF-8"?><svg xmlns="http://www.w3.org/2000/svg" id="Instagram" viewBox="0 0 18 18"><title>instagram</title><path d="M18.946 6.29a6.606 6.606 0 0 0-.418-2.185 4.412 4.412 0 0 0-1.039-1.594 4.412 4.412 0 0 0-1.594-1.039 6.606 6.606 0 0 0-2.184-.418C12.75 1.01 12.444 1 10 1s-2.75.01-3.71.054a6.606 6.606 0 0 0-2.185.418A4.412 4.412 0 0 0 2.51 2.511a4.412 4.412 0 0 0-1.039 1.594 6.606 6.606 0 0 0-.418 2.184C1.01 7.25 1 7.556 1 10s.01 2.75.054 3.71a6.606 6.606 0 0 0 .418 2.185 4.412 4.412 0 0 0 1.039 1.594 4.411 4.411 0 0 0 1.594 1.039 6.606 6.606 0 0 0 2.184.418C7.25 18.99 7.556 19 10 19s2.75-.01 3.71-.054a6.606 6.606 0 0 0 2.185-.418 4.602 4.602 0 0 0 2.633-2.633 6.606 6.606 0 0 0 .418-2.184C18.99 12.75 19 12.444 19 10s-.01-2.75-.054-3.71zm-1.62 7.347a4.978 4.978 0 0 1-.31 1.67 2.98 2.98 0 0 1-1.708 1.709 4.979 4.979 0 0 1-1.671.31c-.95.043-1.234.052-3.637.052s-2.688-.009-3.637-.052a4.979 4.979 0 0 1-1.67-.31 2.788 2.788 0 0 1-1.036-.673 2.788 2.788 0 0 1-.673-1.035 4.978 4.978 0 0 1-.31-1.671c-.043-.95-.052-1.234-.052-3.637s.009-2.688.052-3.637a4.979 4.979 0 0 1 .31-1.67 2.788 2.788 0 0 1 .673-1.036 2.788 2.788 0 0 1 1.035-.673 4.979 4.979 0 0 1 1.671-.31c.95-.043 1.234-.052 3.637-.052s2.688.009 3.637.052a4.979 4.979 0 0 1 1.67.31 2.788 2.788 0 0 1 1.036.673 2.788 2.788 0 0 1 .673 1.035 4.979 4.979 0 0 1 .31 1.671c.043.95.052 1.234.052 3.637s-.009 2.688-.052 3.637zM10 5.378A4.622 4.622 0 1 0 14.622 10 4.622 4.622 0 0 0 10 5.378zM10 13a3 3 0 1 1 3-3 3 3 0 0 1-3 3zm5.884-7.804a1.08 1.08 0 1 1-1.08-1.08 1.08 1.08 0 0 1 1.08 1.08z" transform="translate(-1 -1)"/><metadata><rdf:RDF xmlns:rdf="http://www.w3.org/1999/02/22-rdf-syntax-ns#" xmlns:rdfs="http://www.w3.org/2000/01/rdf-schema#" xmlns:dc="http://purl.org/dc/elements/1.1/"><rdf:Description about="https://iconscout.com/legal#licenses" dc:title="instagram" dc:description="instagram" dc:publisher="Iconscout" dc:date="2017-09-14" dc:format="image/svg+xml" dc:language="en"><dc:creator><rdf:Bag><rdf:li>Daniel Bruce</rdf:li></rdf:Bag></dc:creator></rdf:Description></rdf:RDF></metadata></svg>