<?xml version="1.0" encoding="UTF-8"?>
<svg width="264px" height="48px" viewBox="0 0 264 48" version="1.1" xmlns="http://www.w3.org/2000/svg" xmlns:xlink="http://www.w3.org/1999/xlink">
    <!-- Generator: Sketch 48.1 (47250) - http://www.bohemiancoding.com/sketch -->
    <title>Group</title>
    <desc>Created with Sketch.</desc>
    <defs>
        <polygon id="path-1" points="0 6932 2080.532 6932 2080.532 0.478 0 0.478"></polygon>
    </defs>
    <g id="Page-1" stroke="none" stroke-width="1" fill="none" fill-rule="evenodd">
        <g id="PROJETO_WEB_TEDx_2018" transform="translate(-445.000000, -233.000000)">
            <g id="Group">
                <polygon id="Fill-2" fill="#FF2B06" points="448.286 274.9077 446.274 272.0077 448.191 272.0077 449.268 273.6057 450.334 272.0077 452.192 272.0077 450.18 274.8727 452.44 278.1277 450.523 278.1277 449.245 276.1987 447.967 278.1277 446.085 278.1277"></polygon>
                <path d="M454.428,277.039 L460.406,277.039 L460.406,275.772 L454.428,275.772 L454.428,277.039 Z M454.428,274.505 L460.406,274.505 L460.406,273.238 L454.428,273.238 L454.428,274.505 Z" id="Fill-3" fill="#FFFFFF"></path>
                <path d="M463.306,278.128 L464.987,278.128 L464.987,272.008 L463.306,272.008 L463.306,278.128 Z M463.305,271.061 L464.986,271.061 L464.986,269.676 L463.305,269.676 L463.305,271.061 Z" id="Fill-4" fill="#FFFFFF"></path>
                <g id="Group-57" transform="translate(0.000000, 0.520000)">
                    <path d="M466.0751,271.4878 L467.6731,271.4878 L467.6731,272.3398 L467.7081,272.3398 C468.1351,271.6538 468.8681,271.3218 469.5791,271.3218 C471.3661,271.3218 471.8151,272.3278 471.8151,273.8428 L471.8151,277.6078 L470.1351,277.6078 L470.1351,274.1508 C470.1351,273.1448 469.8391,272.6478 469.0571,272.6478 C468.1461,272.6478 467.7561,273.1568 467.7561,274.3998 L467.7561,277.6078 L466.0751,277.6078 L466.0751,271.4878 Z" id="Fill-5" fill="#FFFFFF"></path>
                    <path d="M475.7567,272.5889 C474.6557,272.5889 474.2777,273.5359 474.2777,274.5419 C474.2777,275.5009 474.7147,276.5059 475.7567,276.5059 C476.8687,276.5059 477.1997,275.5359 477.1997,274.5299 C477.1997,273.5359 476.8457,272.5889 475.7567,272.5889 Z M477.2247,276.8259 L477.1997,276.8259 C476.8107,277.4889 476.1237,277.7729 475.3427,277.7729 C473.4957,277.7729 472.5967,276.1869 472.5967,274.4939 C472.5967,272.8489 473.5077,271.3219 475.3067,271.3219 C476.0277,271.3219 476.7387,271.6299 477.1297,272.2339 L477.1177,272.2339 L477.1417,272.2339 L477.1417,269.1559 L478.8217,269.1559 L478.8217,277.6079 L477.2247,277.6079 L477.2247,276.8259 Z" id="Fill-7" fill="#FFFFFF"></path>
                    <path d="M483.9706,273.8906 C483.8166,273.0386 483.4496,272.5886 482.6326,272.5886 C481.5676,272.5886 481.2596,273.4176 481.2366,273.8906 L483.9706,273.8906 Z M481.2366,274.9556 C481.2826,276.0206 481.8046,276.5066 482.7396,276.5066 C483.4136,276.5066 483.9586,276.0926 484.0656,275.7136 L485.5446,275.7136 C485.0716,277.1576 484.0656,277.7726 482.6806,277.7726 C480.7506,277.7726 479.5556,276.4476 479.5556,274.5536 C479.5556,272.7186 480.8226,271.3226 482.6806,271.3226 C484.7636,271.3226 485.7696,273.0736 485.6516,274.9556 L481.2366,274.9556 Z" id="Fill-9" fill="#FFFFFF"></path>
                    <path d="M490.953,274.5654 C490.953,273.5944 490.562,272.5884 489.485,272.5884 C488.385,272.5884 488.03,273.5714 488.03,274.5654 C488.03,275.5594 488.409,276.5064 489.498,276.5064 C490.599,276.5064 490.953,275.5594 490.953,274.5654 Z M486.408,271.4874 L488.006,271.4874 L488.006,272.2694 L488.03,272.2694 C488.432,271.6184 489.095,271.3224 489.852,271.3224 C491.77,271.3224 492.635,272.8734 492.635,274.6124 C492.635,276.2464 491.734,277.7734 489.947,277.7734 C489.214,277.7734 488.515,277.4534 488.112,276.8494 L488.089,276.8494 L488.089,279.7614 L486.408,279.7614 L486.408,271.4874 Z" id="Fill-11" fill="#FFFFFF"></path>
                    <path d="M497.5223,273.8906 C497.3683,273.0386 497.0013,272.5886 496.1843,272.5886 C495.1193,272.5886 494.8113,273.4176 494.7883,273.8906 L497.5223,273.8906 Z M494.7883,274.9556 C494.8343,276.0206 495.3563,276.5066 496.2913,276.5066 C496.9653,276.5066 497.5103,276.0926 497.6173,275.7136 L499.0963,275.7136 C498.6233,277.1576 497.6173,277.7726 496.2323,277.7726 C494.3023,277.7726 493.1073,276.4476 493.1073,274.5536 C493.1073,272.7186 494.3743,271.3226 496.2323,271.3226 C498.3153,271.3226 499.3213,273.0736 499.2033,274.9556 L494.7883,274.9556 Z" id="Fill-13" fill="#FFFFFF"></path>
                    <path d="M499.9598,271.4878 L501.5578,271.4878 L501.5578,272.3398 L501.5938,272.3398 C502.0198,271.6538 502.7528,271.3218 503.4638,271.3218 C505.2508,271.3218 505.6998,272.3278 505.6998,273.8428 L505.6998,277.6078 L504.0198,277.6078 L504.0198,274.1508 C504.0198,273.1448 503.7238,272.6478 502.9418,272.6478 C502.0308,272.6478 501.6408,273.1568 501.6408,274.3998 L501.6408,277.6078 L499.9598,277.6078 L499.9598,271.4878 Z" id="Fill-15" fill="#FFFFFF"></path>
                    <path d="M509.6415,272.5889 C508.5405,272.5889 508.1625,273.5359 508.1625,274.5419 C508.1625,275.5009 508.5995,276.5059 509.6415,276.5059 C510.7535,276.5059 511.0855,275.5359 511.0855,274.5299 C511.0855,273.5359 510.7305,272.5889 509.6415,272.5889 Z M511.1095,276.8259 L511.0855,276.8259 C510.6955,277.4889 510.0085,277.7729 509.2275,277.7729 C507.3805,277.7729 506.4815,276.1869 506.4815,274.4939 C506.4815,272.8489 507.3925,271.3219 509.1915,271.3219 C509.9135,271.3219 510.6235,271.6299 511.0145,272.2339 L511.0025,272.2339 L511.0265,272.2339 L511.0265,269.1559 L512.7065,269.1559 L512.7065,277.6079 L511.1095,277.6079 L511.1095,276.8259 Z" id="Fill-17" fill="#FFFFFF"></path>
                    <path d="M517.8553,273.8906 C517.7013,273.0386 517.3343,272.5886 516.5173,272.5886 C515.4533,272.5886 515.1443,273.4176 515.1213,273.8906 L517.8553,273.8906 Z M515.1213,274.9556 C515.1683,276.0206 515.6893,276.5066 516.6243,276.5066 C517.2983,276.5066 517.8433,276.0926 517.9503,275.7136 L519.4293,275.7136 C518.9563,277.1576 517.9503,277.7726 516.5653,277.7726 C514.6353,277.7726 513.4403,276.4476 513.4403,274.5536 C513.4403,272.7186 514.7073,271.3226 516.5653,271.3226 C518.6483,271.3226 519.6543,273.0736 519.5363,274.9556 L515.1213,274.9556 Z" id="Fill-19" fill="#FFFFFF"></path>
                    <path d="M520.2928,271.4878 L521.8918,271.4878 L521.8918,272.3398 L521.9268,272.3398 C522.3528,271.6538 523.0868,271.3218 523.7968,271.3218 C525.5838,271.3218 526.0338,272.3278 526.0338,273.8428 L526.0338,277.6078 L524.3538,277.6078 L524.3538,274.1508 C524.3538,273.1448 524.0578,272.6478 523.2758,272.6478 C522.3638,272.6478 521.9738,273.1568 521.9738,274.3998 L521.9738,277.6078 L520.2928,277.6078 L520.2928,271.4878 Z" id="Fill-21" fill="#FFFFFF"></path>
                    <path d="M529.205,271.4878 L530.436,271.4878 L530.436,272.6128 L529.205,272.6128 L529.205,275.6428 C529.205,276.2108 529.348,276.3528 529.916,276.3528 C530.093,276.3528 530.259,276.3408 530.436,276.3048 L530.436,277.6188 C530.152,277.6668 529.785,277.6778 529.454,277.6778 C528.424,277.6778 527.524,277.4418 527.524,276.2228 L527.524,272.6128 L526.507,272.6128 L526.507,271.4878 L527.524,271.4878 L527.524,269.6538 L529.205,269.6538 L529.205,271.4878 Z" id="Fill-23" fill="#FFFFFF"></path>
                    <mask id="mask-2" fill="white">
                        <use xlink:href="#path-1"></use>
                    </mask>
                    <g id="Clip-26"></g>
                    <polygon id="Fill-25" fill="#FFFFFF" mask="url(#mask-2)" points="531.052 277.607 532.733 277.607 532.733 269.156 531.052 269.156"></polygon>
                    <path d="M536.8397,278.3765 C536.4727,279.3595 535.8927,279.7615 534.7327,279.7615 C534.3897,279.7615 534.0457,279.7375 533.7027,279.7025 L533.7027,278.3175 C534.0227,278.3415 534.3537,278.3885 534.6857,278.3765 C535.2647,278.3175 535.4537,277.7135 535.2647,277.2285 L533.1107,271.4875 L534.9097,271.4875 L536.2947,275.6785 L536.3187,275.6785 L537.6557,271.4875 L539.3967,271.4875 L536.8397,278.3765 Z" id="Fill-27" fill="#FFFFFF" mask="url(#mask-2)"></path>
                    <path d="M545.7518,276.5063 C546.8988,276.5063 547.2428,275.5243 547.2428,274.5533 C547.2428,273.5713 546.8988,272.5893 545.7518,272.5893 C544.6148,272.5893 544.2728,273.5713 544.2728,274.5533 C544.2728,275.5243 544.6148,276.5063 545.7518,276.5063 M545.7518,271.3223 C547.6808,271.3223 548.9238,272.6003 548.9238,274.5533 C548.9238,276.4943 547.6808,277.7733 545.7518,277.7733 C543.8338,277.7733 542.5918,276.4943 542.5918,274.5533 C542.5918,272.6003 543.8338,271.3223 545.7518,271.3223" id="Fill-28" fill="#FFFFFF" mask="url(#mask-2)"></path>
                    <path d="M549.5389,271.4878 L551.1369,271.4878 L551.1369,272.6238 L551.1599,272.6238 C551.4679,271.8548 552.2969,271.3218 553.1129,271.3218 C553.2309,271.3218 553.3739,271.3458 553.4799,271.3818 L553.4799,272.9438 C553.3259,272.9078 553.0779,272.8848 552.8769,272.8848 C551.6449,272.8848 551.2199,273.7728 551.2199,274.8498 L551.2199,277.6078 L549.5389,277.6078 L549.5389,271.4878 Z" id="Fill-29" fill="#FFFFFF" mask="url(#mask-2)"></path>
                    <path d="M558.1903,274.4707 C558.1903,273.4767 557.8473,272.5887 556.7583,272.5887 C555.8113,272.5887 555.3973,273.4177 555.3973,274.3287 C555.3973,275.2047 555.7283,276.1627 556.7583,276.1627 C557.7173,276.1627 558.1903,275.3467 558.1903,274.4707 Z M559.7893,277.2167 C559.7893,278.2227 559.4333,279.9277 556.6163,279.9277 C555.4093,279.9277 554.0013,279.3597 553.9183,277.9627 L555.5863,277.9627 C555.7413,278.5897 556.2503,278.8027 556.8413,278.8027 C557.7763,278.8027 558.2033,278.1637 558.1903,277.2877 L558.1903,276.4827 L558.1673,276.4827 C557.7993,277.1217 557.0663,277.4297 556.3323,277.4297 C554.4983,277.4297 553.7163,276.0327 553.7163,274.3527 C553.7163,272.7657 554.6273,271.3227 556.3443,271.3227 C557.1493,271.3227 557.7643,271.5947 558.1673,272.3047 L558.1903,272.3047 L558.1903,271.4877 L559.7893,271.4877 L559.7893,277.2167 Z" id="Fill-30" fill="#FFFFFF" mask="url(#mask-2)"></path>
                    <path d="M564.4755,274.6128 C564.1915,274.8618 563.5995,274.8728 563.0795,274.9678 C562.5575,275.0738 562.0835,275.2518 562.0835,275.8668 C562.0835,276.4948 562.5695,276.6488 563.1145,276.6488 C564.4275,276.6488 564.4755,275.6068 564.4755,275.2398 L564.4755,274.6128 Z M560.5925,273.3698 C560.6875,271.7958 562.0965,271.3218 563.4695,271.3218 C564.6885,271.3218 566.1565,271.5938 566.1565,273.0618 L566.1565,276.2458 C566.1565,276.8018 566.2155,277.3588 566.3695,277.6078 L564.6645,277.6078 C564.6055,277.4178 564.5585,277.2168 564.5465,277.0158 C564.0135,277.5718 563.2325,277.7728 562.4875,277.7728 C561.3275,277.7728 560.4035,277.1928 560.4035,275.9388 C560.4035,274.5538 561.4455,274.2218 562.4875,274.0798 C563.5165,273.9258 564.4755,273.9618 564.4755,273.2758 C564.4755,272.5528 563.9785,272.4468 563.3865,272.4468 C562.7465,272.4468 562.3325,272.7068 562.2735,273.3698 L560.5925,273.3698 Z" id="Fill-31" fill="#FFFFFF" mask="url(#mask-2)"></path>
                    <path d="M567.2206,271.4878 L568.8196,271.4878 L568.8196,272.3398 L568.8546,272.3398 C569.2806,271.6538 570.0146,271.3218 570.7246,271.3218 C572.5116,271.3218 572.9616,272.3278 572.9616,273.8428 L572.9616,277.6078 L571.2816,277.6078 L571.2816,274.1508 C571.2816,273.1448 570.9856,272.6478 570.2036,272.6478 C569.2916,272.6478 568.9016,273.1568 568.9016,274.3998 L568.9016,277.6078 L567.2206,277.6078 L567.2206,271.4878 Z" id="Fill-32" fill="#FFFFFF" mask="url(#mask-2)"></path>
                    <path d="M573.813,277.608 L575.494,277.608 L575.494,271.488 L573.813,271.488 L573.813,277.608 Z M573.813,270.541 L575.494,270.541 L575.494,269.156 L573.813,269.156 L573.813,270.541 Z" id="Fill-33" fill="#FFFFFF" mask="url(#mask-2)"></path>
                    <polygon id="Fill-34" fill="#FFFFFF" mask="url(#mask-2)" points="576.204 276.3408 579.388 272.7548 576.44 272.7548 576.44 271.4878 581.601 271.4878 581.601 272.7548 578.418 276.3408 581.826 276.3408 581.826 277.6078 576.204 277.6078"></polygon>
                    <path d="M586.6073,273.8906 C586.4543,273.0386 586.0863,272.5886 585.2703,272.5886 C584.2053,272.5886 583.8973,273.4176 583.8743,273.8906 L586.6073,273.8906 Z M583.8743,274.9556 C583.9203,276.0206 584.4423,276.5066 585.3773,276.5066 C586.0513,276.5066 586.5953,276.0926 586.7023,275.7136 L588.1813,275.7136 C587.7093,277.1576 586.7023,277.7726 585.3173,277.7726 C583.3883,277.7726 582.1933,276.4476 582.1933,274.5536 C582.1933,272.7186 583.4603,271.3226 585.3173,271.3226 C587.4003,271.3226 588.4073,273.0736 588.2893,274.9556 L583.8743,274.9556 Z" id="Fill-35" fill="#FFFFFF" mask="url(#mask-2)"></path>
                    <path d="M591.9452,272.5889 C590.8442,272.5889 590.4662,273.5359 590.4662,274.5419 C590.4662,275.5009 590.9042,276.5059 591.9452,276.5059 C593.0582,276.5059 593.3892,275.5359 593.3892,274.5299 C593.3892,273.5359 593.0352,272.5889 591.9452,272.5889 Z M593.4142,276.8259 L593.3892,276.8259 C592.9992,277.4889 592.3122,277.7729 591.5312,277.7729 C589.6842,277.7729 588.7852,276.1869 588.7852,274.4939 C588.7852,272.8489 589.6972,271.3219 591.4962,271.3219 C592.2172,271.3219 592.9282,271.6299 593.3182,272.2339 L593.3062,272.2339 L593.3302,272.2339 L593.3302,269.1559 L595.0112,269.1559 L595.0112,277.6079 L593.4142,277.6079 L593.4142,276.8259 Z" id="Fill-36" fill="#FFFFFF" mask="url(#mask-2)"></path>
                    <polygon id="Fill-37" fill="#FFFFFF" mask="url(#mask-2)" points="601.1415 270.7188 598.6095 270.7188 598.6095 269.1568 605.5335 269.1568 605.5335 270.7188 602.9995 270.7188 602.9995 277.6078 601.1415 277.6078"></polygon>
                    <polygon id="Fill-38" fill="#FFFFFF" mask="url(#mask-2)" points="606.2665 269.1563 612.5865 269.1563 612.5865 270.7183 608.1245 270.7183 608.1245 272.5293 612.2195 272.5293 612.2195 273.9733 608.1245 273.9733 608.1245 276.0453 612.6815 276.0453 612.6815 277.6073 606.2665 277.6073"></polygon>
                    <path d="M615.3212,276.0449 L616.9772,276.0449 C618.0542,276.0449 619.0852,275.3819 619.0852,273.5119 C619.0852,271.8079 618.4932,270.7189 616.6462,270.7189 L615.3212,270.7189 L615.3212,276.0449 Z M613.4632,269.1559 L617.1082,269.1559 C619.2982,269.1559 620.9432,270.5289 620.9432,273.3349 C620.9432,275.7849 619.6882,277.6069 617.1082,277.6069 L613.4632,277.6069 L613.4632,269.1559 Z" id="Fill-39" fill="#FFFFFF" mask="url(#mask-2)"></path>
                    <path d="M628.9911,273.8906 C628.8371,273.0386 628.4701,272.5886 627.6531,272.5886 C626.5881,272.5886 626.2801,273.4176 626.2571,273.8906 L628.9911,273.8906 Z M626.2571,274.9556 C626.3031,276.0206 626.8251,276.5066 627.7601,276.5066 C628.4341,276.5066 628.9791,276.0926 629.0861,275.7136 L630.5651,275.7136 C630.0921,277.1576 629.0861,277.7726 627.7011,277.7726 C625.7711,277.7726 624.5761,276.4476 624.5761,274.5536 C624.5761,272.7186 625.8431,271.3226 627.7011,271.3226 C629.7841,271.3226 630.7901,273.0736 630.6721,274.9556 L626.2571,274.9556 Z" id="Fill-40" fill="#FFFFFF" mask="url(#mask-2)"></path>
                    <polygon id="Fill-41" fill="#FFFFFF" mask="url(#mask-2)" points="634.577 277.6074 632.707 277.6074 630.612 271.4874 632.376 271.4874 633.666 275.6664 633.689 275.6664 634.979 271.4874 636.648 271.4874"></polygon>
                    <path d="M640.9921,273.8906 C640.8391,273.0386 640.4711,272.5886 639.6551,272.5886 C638.5901,272.5886 638.2821,273.4176 638.2581,273.8906 L640.9921,273.8906 Z M638.2581,274.9556 C638.3051,276.0206 638.8261,276.5066 639.7621,276.5066 C640.4351,276.5066 640.9801,276.0926 641.0871,275.7136 L642.5661,275.7136 C642.0931,277.1576 641.0871,277.7726 639.7021,277.7726 C637.7721,277.7726 636.5771,276.4476 636.5771,274.5536 C636.5771,272.7186 637.8441,271.3226 639.7021,271.3226 C641.7851,271.3226 642.7911,273.0736 642.6731,274.9556 L638.2581,274.9556 Z" id="Fill-42" fill="#FFFFFF" mask="url(#mask-2)"></path>
                    <path d="M643.4305,271.4878 L645.0285,271.4878 L645.0285,272.3398 L645.0635,272.3398 C645.4905,271.6538 646.2235,271.3218 646.9335,271.3218 C648.7215,271.3218 649.1705,272.3278 649.1705,273.8428 L649.1705,277.6078 L647.4905,277.6078 L647.4905,274.1508 C647.4905,273.1448 647.1945,272.6478 646.4125,272.6478 C645.5015,272.6478 645.1115,273.1568 645.1115,274.3998 L645.1115,277.6078 L643.4305,277.6078 L643.4305,271.4878 Z" id="Fill-43" fill="#FFFFFF" mask="url(#mask-2)"></path>
                    <path d="M652.3427,271.4878 L653.5727,271.4878 L653.5727,272.6128 L652.3427,272.6128 L652.3427,275.6428 C652.3427,276.2108 652.4847,276.3528 653.0527,276.3528 C653.2307,276.3528 653.3967,276.3408 653.5727,276.3048 L653.5727,277.6188 C653.2897,277.6668 652.9227,277.6778 652.5907,277.6778 C651.5617,277.6778 650.6617,277.4418 650.6617,276.2228 L650.6617,272.6128 L649.6437,272.6128 L649.6437,271.4878 L650.6617,271.4878 L650.6617,269.6538 L652.3427,269.6538 L652.3427,271.4878 Z" id="Fill-44" fill="#FFFFFF" mask="url(#mask-2)"></path>
                    <polygon id="Fill-45" fill="#FF2B06" mask="url(#mask-2)" points="453.3524 241.1963 445.4654 241.1963 445.4654 233.9843 469.8994 233.9843 469.8994 241.1963 462.0164 241.1963 462.0164 262.1233 453.3524 262.1233"></polygon>
                    <polygon id="Fill-46" fill="#FF2B06" mask="url(#mask-2)" points="471.246 233.9839 494.965 233.9839 494.965 241.1959 479.916 241.1959 479.916 244.7029 494.965 244.7029 494.965 251.4049 479.916 251.4049 479.916 254.9119 494.969 254.9119 494.969 262.1239 471.246 262.1239"></polygon>
                    <path d="M505.0927,254.9116 L508.4837,254.9116 C513.8847,254.9116 514.6737,250.5356 514.6737,247.8916 C514.6737,246.1216 514.1187,241.1966 507.8527,241.1966 L505.0927,241.1966 L505.0927,254.9116 Z M496.4237,233.9836 L510.6517,233.9836 C520.0297,233.9836 523.3437,240.9206 523.3437,248.0126 C523.3437,256.6456 518.7717,262.1236 508.9577,262.1236 L496.4237,262.1236 L496.4237,233.9836 Z" id="Fill-47" fill="#FF2B06" mask="url(#mask-2)"></path>
                    <polygon id="Fill-48" fill="#FF2B06" mask="url(#mask-2)" points="535.8007 251.2798 533.1557 246.8938 530.5767 251.2798 524.2257 251.2798 530.2557 242.4118 524.4487 233.9298 530.8027 233.9298 533.1557 238.1228 535.5767 233.9298 541.9297 233.9298 536.1247 242.4118 542.1547 251.2798"></polygon>
                    <path d="M561.6317,246.8936 C563.3627,246.8936 564.7327,246.5376 565.7397,245.8256 C566.7477,245.1126 567.2527,243.8296 567.2527,241.9726 C567.2527,239.9756 566.5477,238.6156 565.1377,237.8906 C564.3827,237.5086 563.3747,237.3176 562.1137,237.3176 L553.0987,237.3176 L553.0987,246.8936 L561.6317,246.8936 Z M549.3027,234.0566 L562.0397,234.0566 C564.1377,234.0566 565.8667,234.3676 567.2287,234.9906 C569.8127,236.1866 571.1057,238.3926 571.1057,241.6096 C571.1057,243.2886 570.7587,244.6616 570.0667,245.7296 C569.3727,246.7986 568.4027,247.6566 567.1567,248.3056 C568.2507,248.7496 569.0737,249.3346 569.6267,250.0606 C570.1807,250.7846 570.4877,251.9606 570.5527,253.5886 L570.6857,257.3466 C570.7237,258.4146 570.8127,259.2096 570.9527,259.7306 C571.1817,260.6216 571.5887,261.1936 572.1737,261.4486 L572.1737,262.0776 L567.5197,262.0776 C567.3927,261.8366 567.2907,261.5246 567.2137,261.1436 C567.1377,260.7616 567.0737,260.0236 567.0237,258.9296 L566.7947,254.2566 C566.7077,252.4256 566.0467,251.1986 564.8117,250.5746 C564.1077,250.2316 563.0007,250.0606 561.4937,250.0606 L553.0987,250.0606 L553.0987,262.0776 L549.3027,262.0776 L549.3027,234.0566 Z" id="Fill-49" fill="#FFFFFF" mask="url(#mask-2)"></path>
                    <path d="M576.599,262.077 L580.089,262.077 L580.089,241.743 L576.599,241.743 L576.599,262.077 Z M576.599,237.947 L580.089,237.947 L580.089,234.056 L576.599,234.056 L576.599,237.947 Z" id="Fill-50" fill="#FFFFFF" mask="url(#mask-2)"></path>
                    <path d="M597.9491,257.2642 C598.7851,255.5432 599.2031,253.6282 599.2031,251.5202 C599.2031,249.6142 598.9011,248.0652 598.2981,246.8712 C597.3431,244.9912 595.6951,244.0522 593.3561,244.0522 C591.2811,244.0522 589.7721,244.8512 588.8291,246.4522 C587.8861,248.0532 587.4151,249.9832 587.4151,252.2432 C587.4151,254.4162 587.8861,256.2252 588.8291,257.6742 C589.7721,259.1212 591.2681,259.8462 593.3181,259.8462 C595.5691,259.8462 597.1121,258.9852 597.9491,257.2642 M600.0811,243.6862 C601.8871,245.4402 602.7891,248.0192 602.7891,251.4242 C602.7891,254.7152 601.9941,257.4342 600.4021,259.5812 C598.8111,261.7292 596.3431,262.8022 592.9971,262.8022 C590.2061,262.8022 587.9901,261.8522 586.3481,259.9532 C584.7061,258.0542 583.8861,255.5032 583.8861,252.3012 C583.8861,248.8702 584.7511,246.1392 586.4801,244.1062 C588.2111,242.0732 590.5341,241.0562 593.4511,241.0562 C596.0651,241.0562 598.2741,241.9332 600.0811,243.6862" id="Fill-51" fill="#FFFFFF" mask="url(#mask-2)"></path>
                    <path d="M618.0897,258.8345 C619.3457,258.8345 620.3777,258.7005 621.1867,258.4345 C622.6287,257.9385 623.8097,256.9835 624.7307,255.5725 C625.4637,254.4405 625.9917,252.9905 626.3157,251.2235 C626.5017,250.1675 626.5957,249.1885 626.5957,248.2855 C626.5957,244.8145 625.9207,242.1185 624.5707,240.1985 C623.2227,238.2785 621.0497,237.3175 618.0527,237.3175 L611.4687,237.3175 L611.4687,258.8345 L618.0897,258.8345 Z M607.6347,234.0565 L618.8347,234.0565 C622.6367,234.0565 625.5857,235.4225 627.6817,238.1565 C629.5517,240.6245 630.4857,243.7845 630.4857,247.6375 C630.4857,250.6125 629.9347,253.3025 628.8297,255.7065 C626.8847,259.9545 623.5407,262.0775 618.7967,262.0775 L607.6347,262.0775 L607.6347,234.0565 Z" id="Fill-52" fill="#FFFFFF" mask="url(#mask-2)"></path>
                    <path d="M647.8876,257.2642 C648.7246,255.5432 649.1426,253.6282 649.1426,251.5202 C649.1426,249.6142 648.8406,248.0652 648.2366,246.8712 C647.2816,244.9912 645.6336,244.0522 643.2946,244.0522 C641.2196,244.0522 639.7106,244.8512 638.7686,246.4522 C637.8246,248.0532 637.3536,249.9832 637.3536,252.2432 C637.3536,254.4162 637.8246,256.2252 638.7686,257.6742 C639.7106,259.1212 641.2076,259.8462 643.2576,259.8462 C645.5076,259.8462 647.0516,258.9852 647.8876,257.2642 M650.0196,243.6862 C651.8256,245.4402 652.7286,248.0192 652.7286,251.4242 C652.7286,254.7152 651.9326,257.4342 650.3416,259.5812 C648.7506,261.7292 646.2826,262.8022 642.9356,262.8022 C640.1446,262.8022 637.9286,261.8522 636.2866,259.9532 C634.6456,258.0542 633.8246,255.5032 633.8246,252.3012 C633.8246,248.8702 634.6896,246.1392 636.4196,244.1062 C638.1496,242.0732 640.4726,241.0562 643.3906,241.0562 C646.0036,241.0562 648.2136,241.9332 650.0196,243.6862" id="Fill-53" fill="#FFFFFF" mask="url(#mask-2)"></path>
                    <path d="M659.8817,253.0356 C659.9677,254.6256 660.3287,255.9156 660.9657,256.9076 C662.1787,258.7646 664.3167,259.6926 667.3787,259.6926 C668.7497,259.6926 669.9997,259.4896 671.1267,259.0826 C673.3077,258.2936 674.3977,256.8826 674.3977,254.8476 C674.3977,253.3216 673.9357,252.2346 673.0117,251.5866 C672.0747,250.9506 670.6097,250.3976 668.6127,249.9266 L664.9367,249.0676 C662.5337,248.5086 660.8337,247.8916 659.8357,247.2176 C658.1107,246.0486 657.2487,244.2996 657.2487,241.9726 C657.2487,239.4536 658.0967,237.3886 659.7917,235.7726 C661.4867,234.1576 663.8887,233.3496 666.9937,233.3496 C669.8537,233.3496 672.2807,234.0586 674.2797,235.4766 C676.2787,236.8956 677.2777,239.1616 677.2777,242.2776 L673.7107,242.2776 C673.5277,240.7776 673.1377,239.6256 672.5407,238.8246 C671.4307,237.3626 669.5467,236.6316 666.8897,236.6316 C664.7427,236.6316 663.2007,237.1016 662.2627,238.0426 C661.3227,238.9836 660.8547,240.0776 660.8547,241.3236 C660.8547,242.6966 661.4087,243.7016 662.5177,244.3376 C663.2447,244.7436 664.8897,245.2536 667.4517,245.8636 L671.2597,246.7606 C673.0957,247.1926 674.5127,247.7836 675.5107,248.5336 C677.2357,249.8446 678.0987,251.7446 678.0987,254.2376 C678.0987,257.3396 676.9977,259.5586 674.7957,260.8946 C672.5947,262.2296 670.0367,262.8976 667.1227,262.8976 C663.7247,262.8976 661.0647,262.0076 659.1417,260.2266 C657.2187,258.4596 656.2767,256.0626 656.3147,253.0356 L659.8817,253.0356 Z" id="Fill-54" fill="#FFFFFF" mask="url(#mask-2)"></path>
                    <path d="M686.4335,241.6475 L686.4335,255.2105 C686.4335,256.2535 686.5945,257.1055 686.9165,257.7665 C687.5115,258.9875 688.6205,259.5975 690.2425,259.5975 C692.5705,259.5975 694.1565,258.5295 694.9975,256.3935 C695.4555,255.2485 695.6855,253.6785 695.6855,251.6815 L695.6855,241.6475 L699.1195,241.6475 L699.1195,262.0775 L695.8755,262.0775 L695.9135,259.0635 C695.4775,259.8385 694.9345,260.4945 694.2855,261.0275 C692.9995,262.0965 691.4405,262.6305 689.6065,262.6305 C686.7475,262.6305 684.8015,261.6575 683.7665,259.7115 C683.2045,258.6695 682.9235,257.2765 682.9235,255.5345 L682.9235,241.6475 L686.4335,241.6475 Z" id="Fill-55" fill="#FFFFFF" mask="url(#mask-2)"></path>
                    <polygon id="Fill-56" fill="#FFFFFF" mask="url(#mask-2)" points="704.822 262.077 708.256 262.077 708.256 234.056 704.822 234.056"></polygon>
                </g>
            </g>
        </g>
    </g>
</svg>