<?xml version="1.0" encoding="UTF-8"?><svg xmlns="http://www.w3.org/2000/svg" xmlns:xlink="http://www.w3.org/1999/xlink" version="1.1" id="Layer_1" x="0px" y="0px" width="92px" height="92px" viewBox="0 0 92 92" xml:space="preserve"><path id="XMLID_101_" d="M78 23.5H14c-3.6 0-6.5-2.9-6.5-6.5s2.9-6.5 6.5-6.5h64c3.6 0 6.5 2.9 6.5 6.5s-2.9 6.5-6.5 6.5zM84.5 46c0-3.6-2.9-6.5-6.5-6.5H14c-3.6 0-6.5 2.9-6.5 6.5s2.9 6.5 6.5 6.5h64c3.6 0 6.5-2.9 6.5-6.5zm0 29c0-3.6-2.9-6.5-6.5-6.5H14c-3.6 0-6.5 2.9-6.5 6.5s2.9 6.5 6.5 6.5h64c3.6 0 6.5-2.9 6.5-6.5z"/><metadata><rdf:RDF xmlns:rdf="http://www.w3.org/1999/02/22-rdf-syntax-ns#" xmlns:rdfs="http://www.w3.org/2000/01/rdf-schema#" xmlns:dc="http://purl.org/dc/elements/1.1/"><rdf:Description about="https://iconscout.com/legal#licenses" dc:title="menu" dc:description="menu" dc:publisher="Iconscout" dc:date="2017-09-24" dc:format="image/svg+xml" dc:language="en"><dc:creator><rdf:Bag><rdf:li>Amit Jakhu</rdf:li></rdf:Bag></dc:creator></rdf:Description></rdf:RDF></metadata></svg>